HIERARCHY
ROOT SpineBase
{
  OFFSET 0.000000 0.000000 0.000000
  CHANNELS 6 Xposition Yposition Zposition Zrotation Xrotation Yrotation
  JOINT SpineMid
  {
    OFFSET 0.000000 32.730682 0.000000
    CHANNELS 3 Zrotation Xrotation Yrotation
    JOINT SpineShoulder
    {
      OFFSET 0.197161 24.285950 -0.791616
      CHANNELS 3 Zrotation Xrotation Yrotation
      JOINT Neck
      {
        OFFSET 0.126524 8.027601 -0.594568
        CHANNELS 3 Zrotation Xrotation Yrotation
        JOINT Head
        {
          OFFSET 3.373712 12.756705 3.980389
          CHANNELS 3 Zrotation Xrotation Yrotation
          End Site
          {
            OFFSET 0 0 0
          }
        }
      }
      JOINT ShoulderLeft
      {
        OFFSET -9.617262 -4.101420 -11.864002
        CHANNELS 3 Zrotation Xrotation Yrotation
        JOINT ElbowLeft
        {
          OFFSET -8.067039 -24.901907 -5.767020
          CHANNELS 3 Zrotation Xrotation Yrotation
          JOINT WristLeft
          {
            OFFSET -2.443497 -25.804770 -4.221465
            CHANNELS 3 Zrotation Xrotation Yrotation
            JOINT HandLeft
            {
              OFFSET -0.293486 -6.983885 -0.203737
              CHANNELS 3 Zrotation Xrotation Yrotation
              JOINT HandTipLeft
              {
                OFFSET -0.341096 -7.787087 1.128228
                CHANNELS 3 Zrotation Xrotation Yrotation
                End Site
                {
                  OFFSET 0 0 0
                }
              }
              JOINT ThumbLeft
              {
                OFFSET -2.448017 -0.383255 -1.060792
                CHANNELS 3 Zrotation Xrotation Yrotation
                End Site
                {
                  OFFSET 0 0 0
                }
              }
            }
          }
        }
      }
      JOINT ShoulderRight
      {
        OFFSET 12.490355 -3.978098 11.362902
        CHANNELS 3 Zrotation Xrotation Yrotation
        JOINT ElbowRight
        {
          OFFSET 5.856660 -24.790155 -12.887511
          CHANNELS 3 Zrotation Xrotation Yrotation
          JOINT WristRight
          {
            OFFSET 13.995173 -12.286630 -6.987042
            CHANNELS 3 Zrotation Xrotation Yrotation
            JOINT HandRight
            {
              OFFSET 3.798337 -0.472829 -3.169246
              CHANNELS 3 Zrotation Xrotation Yrotation
              JOINT HandTipRight
              {
                OFFSET -0.197277 -0.287191 -0.759158
                CHANNELS 3 Zrotation Xrotation Yrotation
                End Site
                {
                  OFFSET 0 0 0
                }
              }
              JOINT ThumbRight
              {
                OFFSET -0.196258 -0.176627 -3.129098
                CHANNELS 3 Zrotation Xrotation Yrotation
                End Site
                {
                  OFFSET 0 0 0
                }
              }
            }
          }
        }
      }
    }
  }
  JOINT HipLeft
  {
    OFFSET -4.589212 1.537900 -7.802611
    CHANNELS 3 Zrotation Xrotation Yrotation
    JOINT KneeLeft
    {
      OFFSET -4.484818 -36.810684 -0.794838
      CHANNELS 3 Zrotation Xrotation Yrotation
      JOINT AnkleLeft
      {
        OFFSET -2.776201 -36.877688 10.112350
        CHANNELS 3 Zrotation Xrotation Yrotation
        JOINT FootLeft
        {
          OFFSET 4.380091 -7.551081 -2.756540
          CHANNELS 3 Zrotation Xrotation Yrotation
          End Site
          {
            OFFSET 0 0 0
          }
        }
      }
    }
  }
  JOINT HipRight
  {
    OFFSET 5.595369 0.064753 0.631444
    CHANNELS 3 Zrotation Xrotation Yrotation
    JOINT KneeRight
    {
      OFFSET 2.584944 -37.529494 1.150901
      CHANNELS 3 Zrotation Xrotation Yrotation
      JOINT AnkleRight
      {
        OFFSET -9.697087 -37.165150 8.689751
        CHANNELS 3 Zrotation Xrotation Yrotation
        JOINT FootRight
        {
          OFFSET -0.064459 -7.051542 -8.006239
          CHANNELS 3 Zrotation Xrotation Yrotation
          End Site
          {
            OFFSET 0 0 0
          }
        }
      }
    }
  }
}
MOTION
Frames: 13
Frame Time: 0.033333
-46.422398 82.187578 357.981020 1.405682 -0.860283 -45.549530 -0.017882 0.492435 45.614182 0.082759 0.141378 0.077474 -1.826396 0.365675 -0.135217 0.000000 0.000000 0.000000 1.125803 -0.226992 -0.638022 7.239601 1.759108 -1.485897 0.539788 -7.463196 2.462577 1.042935 11.505204 0.264628 0.000000 0.000000 0.000000 0.000000 0.000000 0.000000 -3.633636 -16.142045 -3.672656 17.139235 53.956657 20.717592 19.794290 -0.619699 2.513834 -14.421855 3.771679 -66.955668 0.000000 0.000000 0.000000 0.000000 0.000000 0.000000 -4.021252 -5.053061 45.732964 2.987980 1.939483 -0.888819 3.488741 8.523918 4.949771 0.000000 0.000000 0.000000 -4.149025 -9.072156 44.801903 4.766618 8.768463 -1.295109 18.630440 -9.614807 -14.100803 0.000000 0.000000 0.000000
-46.399679 82.333438 357.963156 1.546876 -0.666100 -45.720978 -0.002150 0.480333 45.787704 0.120717 0.221856 0.082084 0.408575 0.988646 -1.162282 0.000000 0.000000 0.000000 1.686549 0.139511 -1.034004 8.743938 1.650435 -1.508633 1.627303 -7.615939 3.037067 0.133244 11.345514 0.548240 0.000000 0.000000 0.000000 0.000000 0.000000 0.000000 -0.499125 -14.736827 -4.570567 34.711551 61.448268 8.402089 5.924106 -3.649429 2.410687 -11.369201 9.417849 -70.065152 0.000000 0.000000 0.000000 0.000000 0.000000 0.000000 -3.715199 -5.330677 45.923535 2.734374 2.190398 -0.936448 4.815839 8.817679 4.614962 0.000000 0.000000 0.000000 -4.211328 -9.351261 44.949290 4.850775 8.699819 -1.302684 18.398179 -8.649709 -13.849830 0.000000 0.000000 0.000000
-46.185980 82.567623 357.894162 2.002636 -0.404334 -45.716183 -0.034953 0.429109 45.791872 0.319135 0.303629 0.107172 1.339622 0.810236 -1.729463 0.000000 0.000000 0.000000 2.069443 0.586094 -1.572770 10.280877 1.493779 -1.436357 2.467379 -6.831538 3.496477 -1.134631 9.888307 1.074751 0.000000 0.000000 0.000000 0.000000 0.000000 0.000000 5.506186 -10.312528 -6.240985 44.411327 64.128438 0.320364 -0.720035 -3.092613 1.615044 -11.930879 12.500356 -74.318270 0.000000 0.000000 0.000000 0.000000 0.000000 0.000000 -3.660685 -6.057292 45.932427 2.694097 2.427332 -0.986959 5.516399 8.641786 4.227810 0.000000 0.000000 0.000000 -4.712881 -10.193747 44.852322 5.360095 8.716819 -1.312513 17.027635 -6.838596 -12.453217 0.000000 0.000000 0.000000
-45.864714 82.810700 357.831887 2.640264 -0.133429 -45.457073 -0.108091 0.375172 45.543107 0.606105 0.381907 0.144511 2.645518 0.845319 -2.581972 0.000000 0.000000 0.000000 2.466497 1.142183 -2.250500 12.364842 1.449735 -1.382844 2.856028 -5.469811 3.939241 -1.742496 7.851915 1.810397 0.000000 0.000000 0.000000 0.000000 0.000000 0.000000 12.054080 -5.501160 -8.596196 51.486029 65.313591 -6.241795 -10.194272 -2.945742 0.962000 -9.741466 16.205643 -77.767983 0.000000 0.000000 0.000000 0.000000 0.000000 0.000000 -3.889818 -6.957267 45.663333 2.807298 2.616028 -1.030279 5.571386 8.144793 3.950055 0.000000 0.000000 0.000000 -5.555568 -11.292438 44.443366 6.109898 8.704180 -1.316679 14.814577 -4.835991 -10.215726 0.000000 0.000000 0.000000
-45.470797 83.037790 357.795970 3.389948 0.073219 -44.948126 -0.205962 0.315290 45.045156 0.898217 0.431979 0.187400 4.280021 1.333282 -3.716566 0.000000 0.000000 0.000000 3.219047 1.931279 -3.130248 14.069415 1.479102 -1.156353 3.532744 -4.381537 4.422848 -2.031680 6.038204 2.668441 0.000000 0.000000 0.000000 0.000000 0.000000 0.000000 16.106087 -3.380624 -10.555963 61.939356 66.568231 -15.913381 -18.062056 -4.056989 -1.425453 -9.314998 17.831091 -78.789573 0.000000 0.000000 0.000000 0.000000 0.000000 0.000000 -4.410736 -7.839461 45.112406 2.828003 2.738158 -1.100958 5.312177 6.877967 3.537696 0.000000 0.000000 0.000000 -6.742969 -12.440221 43.730224 7.124039 8.514935 -1.281556 11.518739 -2.394454 -7.072182 0.000000 0.000000 0.000000
-44.715187 83.252075 357.885362 4.601095 0.077777 -45.014133 -0.536326 0.112680 45.128871 1.011961 0.497682 0.223480 6.003808 2.174266 -5.018458 0.000000 0.000000 0.000000 4.161109 2.885874 -4.126469 14.838288 1.658812 -0.762782 5.367359 -3.059776 4.738375 -3.185251 5.238811 3.324539 0.000000 0.000000 0.000000 0.000000 0.000000 0.000000 17.617236 -3.435970 -11.685250 72.188637 69.083105 -25.544402 -21.600592 -8.030317 -6.018526 -8.780373 23.313018 -76.935384 0.000000 0.000000 0.000000 0.000000 0.000000 0.000000 -5.457896 -9.197829 45.110964 3.122879 2.955747 -1.193132 4.663995 5.536648 3.232722 0.000000 0.000000 0.000000 -9.136145 -13.833520 43.435989 8.780022 7.715687 -1.238935 8.150941 -0.264769 -3.918416 0.000000 0.000000 0.000000
-44.512141 83.348041 357.707463 5.041398 0.349349 -45.433138 -0.442202 0.103991 45.551159 1.254316 0.438360 0.265126 7.931115 3.163978 -6.405247 0.000000 0.000000 0.000000 5.476417 3.777122 -5.159373 16.201200 1.569513 -0.347267 5.811994 -1.883562 5.053296 -4.297020 3.171221 4.305739 0.000000 0.000000 0.000000 0.000000 0.000000 0.000000 14.913267 -6.194968 -11.069198 88.723438 68.804684 -40.030718 -24.283710 -10.238913 -8.546934 -7.730473 24.789858 -76.537109 0.000000 0.000000 0.000000 0.000000 0.000000 0.000000 -5.096703 -10.119019 45.594296 2.898899 3.493882 -1.306927 4.024571 4.232236 2.917417 0.000000 0.000000 0.000000 -9.577094 -14.717808 43.682824 9.441101 7.528065 -1.183392 5.459936 0.992185 -1.369489 0.000000 0.000000 0.000000
-44.737971 83.350600 357.384615 4.852408 0.753241 -42.969780 -0.006834 0.251567 43.087097 1.489531 0.296286 0.302779 10.114116 4.456822 -7.916863 0.000000 0.000000 0.000000 6.932992 4.561280 -6.095307 18.241680 1.207926 0.058078 5.892977 -0.900242 5.384309 -4.553543 3.437101 4.797013 0.000000 0.000000 0.000000 0.000000 0.000000 0.000000 10.714761 -9.043355 -9.820470 99.699133 65.558709 -48.457824 -26.880270 -10.462132 -9.168554 -4.717845 25.935602 -77.298960 0.000000 0.000000 0.000000 0.000000 0.000000 0.000000 -5.064377 -9.548142 43.056031 2.294703 3.239005 -1.299571 3.430509 2.785141 2.548743 0.000000 0.000000 0.000000 -9.155266 -14.949837 41.174573 9.430835 8.051831 -1.094010 3.451208 1.897156 0.468815 0.000000 0.000000 0.000000
-45.359306 83.260062 356.917393 4.150952 1.233420 -40.063602 0.575577 0.414519 40.175298 1.773587 0.076063 0.337386 12.572721 6.002354 -9.553141 0.000000 0.000000 0.000000 8.978653 5.191467 -7.036878 19.613951 0.583714 0.677982 6.908193 -2.618078 6.742743 -6.229551 5.531129 4.568181 0.000000 0.000000 0.000000 0.000000 0.000000 0.000000 4.975967 -12.713230 -8.127311 107.975673 59.879388 -53.472252 -29.540671 -10.187127 -9.469667 -1.491815 25.218922 -78.356551 0.000000 0.000000 0.000000 0.000000 0.000000 0.000000 -3.924833 -8.496155 40.209981 0.939207 3.389641 -1.327014 3.010563 0.932494 1.999848 0.000000 0.000000 0.000000 -7.775563 -14.704430 38.377145 8.800731 8.683789 -0.960562 1.984781 3.359116 1.678515 0.000000 0.000000 0.000000
-46.186387 83.128450 356.533839 3.205497 1.558174 -33.084358 1.092085 0.520976 33.188928 2.002598 -0.128379 0.354890 14.851233 7.213188 -10.878771 0.000000 0.000000 0.000000 11.323942 5.596447 -7.860757 20.642024 -0.759789 1.641821 8.389693 -3.028895 7.476398 -7.813700 6.106127 4.903218 0.000000 0.000000 0.000000 0.000000 0.000000 0.000000 0.698770 -16.295847 -7.107386 111.268739 57.193214 -55.414607 -32.416289 -12.383132 -11.378769 0.343920 27.230398 -74.874449 0.000000 0.000000 0.000000 0.000000 0.000000 0.000000 -3.856701 -6.001305 33.070947 -0.169757 2.022282 -1.174253 2.405144 1.644294 2.702554 0.000000 0.000000 0.000000 -6.363817 -14.038572 31.542417 7.210846 10.141919 -0.855040 3.217905 2.430296 0.474779 0.000000 0.000000 0.000000
-47.197258 82.993549 356.135753 2.058673 1.854985 -25.442555 1.589673 0.499333 25.540997 2.166763 -0.330772 0.355624 16.749466 8.082007 -11.785590 0.000000 0.000000 0.000000 14.109878 5.979473 -8.717378 21.740343 -1.917895 2.650572 8.374443 -4.667050 8.807284 -7.309076 8.469361 4.547341 0.000000 0.000000 0.000000 0.000000 0.000000 0.000000 -3.455286 -18.334477 -5.844187 110.759117 53.231221 -53.251446 -34.874511 -13.442966 -12.645532 1.805799 27.711127 -72.083594 0.000000 0.000000 0.000000 0.000000 0.000000 0.000000 -2.448920 -3.815413 25.413073 -1.880757 1.284094 -1.116392 2.518794 1.639955 2.851798 0.000000 0.000000 0.000000 -4.311058 -13.723700 24.081979 4.920544 11.993302 -0.705028 5.591208 1.010177 -1.765401 0.000000 0.000000 0.000000
-48.162249 82.935537 355.792435 0.998306 2.113795 -19.196005 1.870938 0.357662 19.288076 2.209978 -0.417640 0.330518 18.812063 8.513052 -12.465428 0.000000 0.000000 0.000000 17.361287 6.074992 -9.514771 22.148956 -3.244998 3.852909 8.203457 -6.178884 10.011174 -7.529316 8.949929 4.785805 0.000000 0.000000 0.000000 0.000000 0.000000 0.000000 -8.111703 -18.831447 -3.918324 106.894305 46.704651 -47.458874 -37.538201 -13.216366 -12.566708 5.447492 26.449875 -71.977493 0.000000 0.000000 0.000000 0.000000 0.000000 0.000000 -0.248202 -2.324375 19.172553 -3.928005 0.854998 -1.111949 3.594250 2.071938 2.921524 0.000000 0.000000 0.000000 -2.162141 -13.896142 18.016044 2.472802 13.644915 -0.523879 8.063612 -1.093528 -3.934592 0.000000 0.000000 0.000000
-48.882595 82.948550 355.551812 0.316176 2.272489 -15.590412 1.950574 0.291731 15.676368 2.304395 -0.460682 0.316619 18.050519 8.428806 -11.846371 0.000000 0.000000 0.000000 19.387421 5.970213 -9.926362 22.469212 -4.466347 4.823907 8.662477 -6.788648 10.600131 -8.051172 9.665888 4.824740 0.000000 0.000000 0.000000 0.000000 0.000000 0.000000 -7.342113 -16.739318 -3.276938 98.320677 46.123994 -40.623714 -37.487732 -12.254671 -10.357383 6.157567 17.993427 -73.315280 0.000000 0.000000 0.000000 0.000000 0.000000 0.000000 1.234642 -2.161423 15.623414 -5.106584 1.128318 -1.171064 4.144999 1.707981 2.754843 0.000000 0.000000 0.000000 -0.286593 -14.377232 14.592087 0.314010 15.025345 -0.358542 9.595264 -2.894301 -4.992927 0.000000 0.000000 0.000000
